<?xml version="1.0" standalone="no"?>
<!DOCTYPE svg PUBLIC "-//W3C//DTD SVG 20010904//EN"
 "http://www.w3.org/TR/2001/REC-SVG-20010904/DTD/svg10.dtd">
<svg version="1.0" xmlns="http://www.w3.org/2000/svg"
 width="360.000000pt" height="360.000000pt" viewBox="0 0 360.000000 360.000000"
 preserveAspectRatio="xMidYMid meet">

<g transform="translate(0.000000,360.000000) scale(0.100000,-0.100000)"
fill="#000000" stroke="none">
<path d="M1565 3494 c-147 -10 -282 -27 -319 -40 -45 -16 -100 -64 -122 -107
-8 -15 -19 -51 -24 -80 -30 -172 -79 -750 -81 -969 -1 -122 15 -164 76 -207
58 -40 107 -50 291 -61 99 -6 207 -13 242 -16 l62 -6 0 -49 0 -49 110 0 110 0
0 50 c0 45 2 50 23 51 12 0 31 2 42 4 11 1 85 6 165 10 260 11 320 25 383 84
50 45 59 75 58 180 -3 307 -63 944 -97 1038 -19 52 -90 119 -141 132 -78 20
-245 33 -483 35 -135 2 -267 2 -295 0z m659 -260 c21 -20 20 -68 -1 -85 -13
-11 -95 -15 -402 -19 l-386 -5 -11 -25 c-6 -14 -19 -131 -28 -260 -34 -485
-36 -514 -53 -532 -17 -19 -50 -23 -69 -10 -29 19 -31 49 -18 227 8 99 21 272
29 385 18 241 30 277 104 317 44 23 46 23 432 23 339 0 390 -2 403 -16z"/>
<path d="M474 2531 c-63 -29 -89 -72 -89 -151 0 -52 5 -72 23 -98 25 -34 88
-72 121 -72 19 0 20 -8 23 -297 3 -280 4 -301 24 -344 39 -85 120 -155 210
-183 21 -7 22 -5 17 81 -4 74 -8 91 -27 108 -53 49 -51 31 -56 455 l-5 397
-27 40 c-29 45 -96 83 -144 83 -16 0 -47 -9 -70 -19z"/>
<path d="M2984 2525 c-22 -13 -54 -44 -70 -67 l-29 -43 -5 -398 -5 -399 -36
-33 c-35 -32 -37 -35 -41 -119 l-4 -85 25 6 c79 19 161 88 202 171 23 45 24
57 29 352 l5 304 34 7 c42 9 79 36 109 80 20 28 23 44 20 90 -5 68 -35 114
-92 140 -55 25 -93 24 -142 -6z"/>
<path d="M1121 1790 c-175 -70 -263 -285 -174 -429 21 -33 44 -53 84 -74 51
-26 72 -30 245 -43 341 -26 1048 -17 1220 17 163 32 237 192 164 355 -26 59
-101 138 -158 165 -47 22 -48 22 -695 23 -555 1 -654 -1 -686 -14z m364 -216
c94 -3 179 -8 190 -9 11 -2 73 -4 137 -4 126 -1 148 -9 148 -56 0 -53 -14 -56
-249 -54 -119 1 -292 7 -384 13 -159 10 -170 12 -188 35 -21 26 -18 57 10 79
12 10 36 12 91 8 41 -3 152 -9 245 -12z"/>
<path d="M1688 1059 l-3 -51 -410 -130 c-225 -72 -418 -138 -429 -147 -10 -9
-25 -31 -33 -49 -28 -66 23 -142 95 -142 20 0 199 52 398 115 199 63 367 115
373 115 7 0 11 -26 11 -76 0 -112 29 -154 110 -154 81 0 110 42 110 154 0 47
4 76 11 76 6 0 174 -52 373 -115 199 -63 378 -115 397 -115 19 0 45 7 58 16
31 22 52 75 45 113 -11 54 -48 76 -224 131 -91 29 -275 87 -410 130 l-245 78
-3 51 -3 51 -109 0 -109 0 -3 -51z"/>
<path d="M881 429 c-75 -16 -131 -85 -131 -161 0 -60 19 -98 67 -135 31 -24
46 -28 98 -28 52 0 67 4 99 29 45 34 66 79 66 139 0 98 -101 177 -199 156z"/>
<path d="M1720 408 c-60 -41 -82 -84 -78 -150 5 -71 39 -119 103 -143 57 -22
115 -15 160 20 46 34 65 73 65 130 0 53 -16 88 -59 130 -26 24 -41 30 -94 33
-53 3 -67 0 -97 -20z"/>
<path d="M2600 408 c-60 -41 -82 -84 -78 -150 5 -71 39 -119 103 -143 114 -44
225 33 225 155 0 49 -17 84 -59 125 -26 24 -41 30 -94 33 -53 3 -67 0 -97 -20z"/>
</g>
</svg>
